<svg data-v-423bf9ae="" xmlns="http://www.w3.org/2000/svg" viewBox="0 0 320.4733911682605 60" class="font"><!----><!----><defs data-v-423bf9ae=""><linearGradient data-v-423bf9ae="" gradientTransform="rotate(25)" id="82508b9e-f1cd-44f8-953e-07debf125498" x1="0%" y1="0%" x2="100%" y2="0%"><stop data-v-423bf9ae="" offset="0%" style="stop-color: rgb(230, 53, 0); stop-opacity: 1;"></stop><stop data-v-423bf9ae="" offset="100%" style="stop-color: rgb(255, 195, 22); stop-opacity: 1;"></stop></linearGradient></defs><g data-v-423bf9ae="" id="077ed152-2551-4fc3-bcdf-a571f301e658" fill="url(#82508b9e-f1cd-44f8-953e-07debf125498)" transform="matrix(5.917160119482044,0,0,5.917160119482044,-3.7869852444033825,-42.89941086624482)"><path d="M0.85 15.90L0.85 15.90Q1.41 16.04 2.16 16.14L2.16 16.14L2.16 16.14Q2.91 16.23 3.60 16.23L3.60 16.23L3.60 16.23Q4.31 16.23 5.18 16.14L5.18 16.14L5.18 13.54L3.85 13.44L3.85 13.44Q2.56 13.34 1.92 13.11L1.92 13.11L1.92 13.11Q1.27 12.88 1.02 12.38L1.02 12.38L1.02 12.38Q0.76 11.89 0.76 10.95L0.76 10.95L0.76 10.95Q0.76 9.94 1.02 9.35L1.02 9.35L1.02 9.35Q1.27 8.75 1.85 8.48L1.85 8.48L1.85 8.48Q2.44 8.22 3.42 8.22L3.42 8.22L3.42 8.22Q4.83 8.22 6.24 8.48L6.24 8.48L6.06 9.59L6.06 9.59Q4.94 9.38 3.50 9.38L3.50 9.38L3.50 9.38Q2.79 9.38 2.28 9.45L2.28 9.45L2.28 12.08L3.84 12.18L3.84 12.18Q4.96 12.25 5.57 12.51L5.57 12.51L5.57 12.51Q6.19 12.77 6.45 13.31L6.45 13.31L6.45 13.31Q6.71 13.85 6.71 14.80L6.71 14.80L6.71 14.80Q6.71 15.78 6.40 16.34L6.40 16.34L6.40 16.34Q6.09 16.90 5.39 17.14L5.39 17.14L5.39 17.14Q4.69 17.39 3.47 17.39L3.47 17.39L3.47 17.39Q1.99 17.39 0.64 17.05L0.64 17.05L0.85 15.90ZM11.59 11.14L10.35 11.14L10.35 16.14L10.35 16.14Q10.85 16.20 11.34 16.21L11.34 16.21L11.26 17.16L11.26 17.16Q10.47 17.32 9.98 17.32L9.98 17.32L9.98 17.32Q9.45 17.32 9.20 17.06L9.20 17.06L9.20 17.06Q8.95 16.80 8.95 16.27L8.95 16.27L8.95 11.14L7.97 11.14L7.97 10.18L8.95 10.18L8.95 8.68L10.35 8.33L10.35 10.18L11.59 10.18L11.59 11.14ZM16.10 17.32L16.10 17.32Q14.84 17.32 14.20 17.02L14.20 17.02L14.20 17.02Q13.57 16.72 13.31 15.95L13.31 15.95L13.31 15.95Q13.06 15.18 13.06 13.68L13.06 13.68L13.06 13.68Q13.06 12.18 13.31 11.41L13.31 11.41L13.31 11.41Q13.57 10.64 14.20 10.34L14.20 10.34L14.20 10.34Q14.84 10.04 16.10 10.04L16.10 10.04L16.10 10.04Q17.37 10.04 18.00 10.34L18.00 10.34L18.00 10.34Q18.63 10.64 18.89 11.40L18.89 11.40L18.89 11.40Q19.14 12.17 19.14 13.68L19.14 13.68L19.14 13.68Q19.14 15.18 18.89 15.95L18.89 15.95L18.89 15.95Q18.63 16.72 18.00 17.02L18.00 17.02L18.00 17.02Q17.36 17.32 16.10 17.32L16.10 17.32ZM14.52 16.17L17.01 16.17L17.01 16.17Q17.42 16.17 17.55 16.10L17.55 16.10L17.55 16.10Q17.68 16.03 17.68 15.82L17.68 15.82L17.68 11.19L15.19 11.19L15.19 11.19Q14.78 11.19 14.65 11.26L14.65 11.26L14.65 11.26Q14.52 11.33 14.52 11.54L14.52 11.54L14.52 16.17ZM21.90 10.18L22.39 11.28L22.39 11.28Q23.02 10.72 23.46 10.42L23.46 10.42L23.46 10.42Q23.91 10.11 24.30 9.97L24.30 9.97L24.44 11.34L24.44 11.34Q23.98 11.48 23.49 11.73L23.49 11.73L23.49 11.73Q22.99 11.97 22.64 12.24L22.64 12.24L22.64 17.18L21.24 17.18L21.24 10.18L21.90 10.18ZM28.46 16.21L28.46 16.21Q29.04 16.21 29.58 16.14L29.58 16.14L29.58 16.14Q30.13 16.06 30.88 15.88L30.88 15.88L31.07 16.90L31.07 16.90Q30.55 17.09 29.79 17.21L29.79 17.21L29.79 17.21Q29.02 17.32 28.21 17.32L28.21 17.32L28.21 17.32Q27.12 17.32 26.54 17.00L26.54 17.00L26.54 17.00Q25.97 16.69 25.73 15.92L25.73 15.92L25.73 15.92Q25.49 15.15 25.49 13.68L25.49 13.68L25.49 13.68Q25.49 12.26 25.77 11.49L25.77 11.49L25.77 11.49Q26.04 10.71 26.67 10.37L26.67 10.37L26.67 10.37Q27.30 10.04 28.45 10.04L28.45 10.04L28.45 10.04Q29.58 10.04 30.18 10.22L30.18 10.22L30.18 10.22Q30.77 10.40 31.01 10.84L31.01 10.84L31.01 10.84Q31.25 11.28 31.25 12.14L31.25 12.14L31.25 12.14Q31.25 13.16 30.95 13.61L30.95 13.61L30.95 13.61Q30.66 14.06 29.80 14.21L29.80 14.21L29.80 14.21Q28.94 14.36 26.96 14.36L26.96 14.36L26.96 16.06L26.96 16.06Q27.52 16.21 28.46 16.21L28.46 16.21ZM28.13 11.19L28.13 11.19Q27.45 11.19 27.21 11.35L27.21 11.35L27.21 11.35Q26.96 11.52 26.96 12.00L26.96 12.00L26.96 13.45L28.81 13.45L28.81 13.45Q29.50 13.45 29.74 13.29L29.74 13.29L29.74 13.29Q29.99 13.12 29.99 12.64L29.99 12.64L29.99 11.19L28.13 11.19ZM34.82 16.14L34.82 16.14Q35.10 16.18 35.46 16.21L35.46 16.21L35.38 17.16L35.38 17.16Q34.86 17.32 34.45 17.32L34.45 17.32L34.45 17.32Q33.92 17.32 33.67 17.06L33.67 17.06L33.67 17.06Q33.42 16.80 33.42 16.27L33.42 16.27L33.42 8.08L34.82 7.87L34.82 16.14ZM37.13 17.18L37.13 17.18ZM37.28 10.28L38.68 10.07L38.68 17.18L37.28 17.18L37.28 10.28ZM38.00 8.96L38.00 8.96Q37.48 8.96 37.30 8.79L37.30 8.79L37.30 8.79Q37.13 8.61 37.13 8.12L37.13 8.12L37.13 8.12Q37.13 7.62 37.31 7.43L37.31 7.43L37.31 7.43Q37.49 7.25 38.00 7.25L38.00 7.25L38.00 7.25Q38.49 7.25 38.66 7.43L38.66 7.43L38.66 7.43Q38.84 7.62 38.84 8.12L38.84 8.12L38.84 8.12Q38.84 8.61 38.67 8.79L38.67 8.79L38.67 8.79Q38.50 8.96 38.00 8.96L38.00 8.96ZM41.20 17.18L41.20 10.18L41.85 10.18L42.22 10.88L42.22 10.88Q42.76 10.44 43.39 10.24L43.39 10.24L43.39 10.24Q44.02 10.04 44.83 10.04L44.83 10.04L44.83 10.04Q45.81 10.04 46.31 10.34L46.31 10.34L46.31 10.34Q46.82 10.64 46.82 11.23L46.82 11.23L46.82 17.18L45.42 17.18L45.42 11.19L43.79 11.19L43.79 11.19Q43.11 11.19 42.85 11.35L42.85 11.35L42.85 11.35Q42.60 11.52 42.60 12.00L42.60 12.00L42.60 17.18L41.20 17.18ZM51.77 13.93L50.67 13.93L50.67 17.18L49.27 17.18L49.27 8.08L50.67 7.87L50.67 12.95L51.77 12.95L53.26 10.18L54.73 10.18L52.93 13.44L54.80 17.18L53.35 17.18L51.77 13.93Z"></path></g><!----><!----></svg>