<svg width="14" height="14" viewBox="0 0 14 14" fill="none" xmlns="http://www.w3.org/2000/svg"><g clip-path="url(#a)"><path d="M4.685 4.48L6.595.692A.451.451 0 0 1 7 .438c.16 0 .32.084.407.255l1.91 3.786 4.287.61A.47.47 0 0 1 14 5.53a.479.479 0 0 1-.149.39L10.77 8.855l.726 4.139c.068.387-.315.69-.653.518L7 11.539l-3.84 1.974a.455.455 0 0 1-.128.043c-.3.053-.585-.222-.525-.561l.726-4.14L.151 5.92a.481.481 0 0 1-.15-.352c0-.093.026-.185.074-.264A.449.449 0 0 1 .4 5.088l4.286-.609zM7 10.523c.07 0 .14.016.203.049l3.225 1.657-.607-3.463a.494.494 0 0 1 .142-.441l2.543-2.424-3.545-.504a.46.46 0 0 1-.344-.252l-1.616-3.2L7 1.947v8.575z" fill="#FFC700"/></g><defs><clipPath id="a"><path fill="#fff" d="M0 0h14v14H0z"/></clipPath></defs></svg>