<svg width="40" height="18" viewBox="0 0 40 18" fill="none" xmlns="http://www.w3.org/2000/svg"><path fill-rule="evenodd" clip-rule="evenodd" d="M39.963 12.465l-.716-3.243a2.775 2.775 0 0 0-2.526-2.19l-6.022-.547-4.632-4.548A6.624 6.624 0 0 0 21.35 0h-2.61C14.275 0 9.937 1.516 6.4 4.253l-.336.21a37.784 37.784 0 0 1-3.411 2.359L.59 8.085c-.38.21-.59.632-.59 1.01v4.086c0 .673.547 1.179 1.18 1.179h2.652a4.421 4.421 0 1 1 8.843 0h14.529c.042-2.443 2.063-4.422 4.505-4.422 2.443 0 4.464 1.98 4.464 4.422h2.274c1.01 0 1.727-.927 1.516-1.895zM15.202 6.19H8.506c1.98-1.474 4.296-2.484 6.696-2.99v2.99zm2.864 0V2.864c.1 0 .2-.01.306-.02.115-.011.235-.023.367-.023h2.653c1.01 0 1.98.38 2.738 1.095l2.274 2.274h-8.338zm-9.77 11.202a3.032 3.032 0 1 0 0-6.064 3.032 3.032 0 0 0 0 6.064zM34.74 14.36a3.032 3.032 0 1 1-6.064 0 3.032 3.032 0 0 1 6.064 0z" fill="#232F3E"/></svg>