<svg width="25" height="44" viewBox="0 0 25 44" fill="none" xmlns="http://www.w3.org/2000/svg"><path d="M24.358 10.623l-3.476-3.477h-4.13V4.134h.791v-.837h-.01V0H7.61v4.134h.874v3.012H4.097L.62 10.623v27.822l2.286 2.285A2.078 2.078 0 0 0 4.603 44a2.08 2.08 0 0 0 2.078-2.079h11.676a2.08 2.08 0 0 0 4.157 0 2.04 2.04 0 0 0-.404-1.218l2.258-2.258V10.623h-.01zM9.054 4.134h.773v-.837h5.495v.837h.855v3.012H9.054V4.134zM5.82 20.023l-.395-3.095 12.53-1.605.396 3.095-12.53 1.605zm10.471 1.641a2.06 2.06 0 1 1 4.12 0 2.06 2.06 0 0 1-4.12 0z" fill="#232F3E"/></svg>