<svg width="38" height="34" viewBox="0 0 38 34" fill="none" xmlns="http://www.w3.org/2000/svg"><path fill-rule="evenodd" clip-rule="evenodd" d="M27.786 7.607a14.4 14.4 0 0 1 4.198 5.558 5.624 5.624 0 0 1 0 11.245 14.381 14.381 0 0 1-26.468 0 5.623 5.623 0 0 1 0-11.245 14.379 14.379 0 0 1 13.166-8.752L21.44 0l2.12 1.325-2.09 3.344a14.399 14.399 0 0 1 6.316 2.938zm4.15 14.303a3.123 3.123 0 1 0 0-6.245l-1.62-.031-.633-1.49a11.88 11.88 0 0 0-21.866 0l-.634 1.49-1.62.03a3.123 3.123 0 0 0 0 6.246l1.62.031.634 1.49a11.88 11.88 0 0 0 21.866 0l.634-1.49 1.62-.03zM15 15.662h-3.125v3.126H15v-3.126zm7.5 0h3.125v3.126H22.5v-3.126zm-1.358 11.4a6.252 6.252 0 0 1-8.642-5.774H25a6.25 6.25 0 0 1-3.858 5.774z" fill="#232F3E"/></svg>