<svg width="34" height="36" viewBox="0 0 34 36" fill="none" xmlns="http://www.w3.org/2000/svg"><path fill-rule="evenodd" clip-rule="evenodd" d="M33.41 14.183a1.167 1.167 0 0 0-.465-.85l-5.579-4.18a2.25 2.25 0 0 0 .05-.468V2.257A2.26 2.26 0 0 0 25.159 0H20.77a2.26 2.26 0 0 0-2.257 2.257v6.428c0 .149.016.293.043.434l-5.678 4.21a1.168 1.168 0 0 0-.172 1.719c4.795 5.322 5.752 19.713 5.76 19.858A1.167 1.167 0 0 0 19.634 36h6.615c.635 0 1.154-.508 1.167-1.143.001-.036.085-3.677.85-7.968.99-5.56 2.652-9.64 4.806-11.798.24-.24.363-.57.339-.908zM20.849 2.334h4.232v6.273H20.85V2.334zM27.64 19.96h-9.69c-.717-2.037-1.607-3.95-2.708-5.477l4.775-3.54h5.841l4.674 3.5c-1.214 1.539-2.158 3.465-2.892 5.517zm-17.042-.784v-.01c.004-.048.008-.097.008-.146V10.38c.287-2.022-.25-4.159-1.442-5.667C7.76 2.934 5.141 1.719 3.072 1.886c-.47.038-.87.355-1.016.804-.143.44-.205.884-.206 1.323a2.16 2.16 0 0 0-.01.184V19.02c0 .048.004.095.007.141l.001.015A2.524 2.524 0 0 0 0 21.604v1.885c0 .627.23 1.2.611 1.642v8.349c0 1.39 1.13 2.52 2.52 2.52h6.185c1.39 0 2.52-1.13 2.52-2.52V25.13a2.51 2.51 0 0 0 .611-1.642v-1.885a2.523 2.523 0 0 0-1.848-2.429zM2.335 23.49v-1.885c0-.102.083-.186.185-.186h7.407c.103 0 .186.084.186.186v1.885a.186.186 0 0 1-.186.185H2.52a.186.186 0 0 1-.185-.185zm1.84-14.302c1.009 1.13 2.471 2.198 4.098 2.484v7.16H4.175V9.186zM9.502 33.48a.186.186 0 0 1-.186.185H3.131a.186.186 0 0 1-.185-.185v-7.471h6.556v7.47zM22.17 4.592a.74.74 0 0 1 1.479 0v1.594a.74.74 0 1 1-1.479 0V4.592z" fill="#232F3E"/></svg>