<svg width="41" height="31" viewBox="0 0 41 31" fill="none" xmlns="http://www.w3.org/2000/svg"><path fill-rule="evenodd" clip-rule="evenodd" d="M40.266 5.32a.206.206 0 0 0-.146-.09l-.015-.001c-5.518-.278-13.622.565-14.848.698l-.57-1.459C23.45 1.303 19.694-.305 16.312.885l-.763.268c-1.705.6-3.047 1.796-3.779 3.37a5.84 5.84 0 0 0-.179 4.564l.552 1.454c-1.056.68-7.773 5.044-11.775 8.664a.205.205 0 0 0 .138.357h.006c.072-.002 5.514-.205 12.772-3.203a6.945 6.945 0 0 1-.933 3.094c-.36.61-.836 1.14-1.37 1.606-1.347 1.176-5.39 5.194-3.22 9.419 0 0 .123-2.593 2.182-3.921.542-.349 1.17-.537 1.81-.61l1.256-.145s.988-.148 2.016-.577a3.246 3.246 0 0 0 1.917-2.28c.24-1.057.363-2.723-.07-5.19a8.225 8.225 0 0 0 1.78.949c.259.103.564.153.934.153.369 0 .675-.05.933-.153a8.355 8.355 0 0 0 1.568-.807l-.161 3.233s-.072 1.918.703 3.086c.775 1.168 2.644 1.159 2.644 1.159s-1.578-.764-1.873-2.458a4.765 4.765 0 0 1 .276-2.572c.084-.207.165-.413.243-.622.194-.515.404-1.024.634-1.525.55-1.193 1.344-3.769 1.594-6.659C35.4 9.51 40.137 5.666 40.225 5.592h.002a.202.202 0 0 0 .072-.136c.002-.01.002-.019.002-.028a.21.21 0 0 0-.035-.108zM20.443 18.514c-.234.093-.515.138-.858.138-.343 0-.624-.045-.86-.139a8.012 8.012 0 0 1-1.805-.973l-.104-.074c-.687-.476-1.207-1.174-1.51-2a49.64 49.64 0 0 0 5.63-3.082 50.088 50.088 0 0 1 3.753-2.16v1.39c0 .086-.004.171-.01.256-.018.23-.05.464-.097.696l-.546 2.333c-.244 1.074-.842 1.986-1.683 2.568l-.105.074a8.017 8.017 0 0 1-1.805.973zm6.098-9.211l-.317.526v-.086c.001-.096.002-.192 0-.289l.105-.05c.071-.035.142-.069.212-.101zm-.327 1.14l.822-1.366.403-.181-1.25 2.08c.011-.177.02-.355.025-.532zm.297.595l1.415-2.354.394-.166-1.463 2.436-.157.038c-.062.016-.124.032-.189.046zm.767-.187l1.52-2.53.306-.122.08-.031-1.561 2.598-.217.054-.128.03zm.77-.194l1.605-2.67c.127-.049.255-.097.38-.143l-1.632 2.715-.139.04c-.07.02-.142.04-.214.058zm.784-.217l1.66-2.762.054-.019c.108-.038.215-.077.32-.113l-1.68 2.797-.203.056-.151.041zm.794-.232l1.691-2.815.367-.12-1.697 2.823-.361.112zm.803-.248l1.7-2.83.26-.078.1-.03-1.69 2.813c-.05.016-.098.033-.146.05l-.224.075zm.821-.279l1.676-2.788.355-.101-1.66 2.763c-.064.023-.13.045-.197.067l-.174.06zm.833-.298l1.627-2.708c.118-.03.234-.062.35-.091l-1.598 2.658-.276.103-.103.038zm.848-.322l1.552-2.584.261-.062.083-.019-1.507 2.507-.121.05-.268.108zm.865-.352l1.447-2.407c.114-.026.227-.05.338-.074l-1.386 2.306a20.139 20.139 0 0 1-.4.175zm.886-.387l1.31-2.179.333-.064-1.232 2.05-.123.059c-.094.044-.188.089-.288.134zm.912-.428l1.134-1.887.327-.056-1.04 1.733-.139.069c-.092.046-.184.093-.282.14zm.94-.477l.918-1.529.323-.046-.808 1.345c-.138.075-.285.152-.433.23zm1.428-.798c-.144.086-.294.174-.454.265l.657-1.094.317-.037-.52.866zm.569-.348l.335-.557c.218-.021.413-.037.575-.047-.226.16-.536.368-.91.604zm-18.9 9.855a.975.975 0 0 0 .388-.1c.68-.359 1.015.124 1.015.124s-.616.995-1.403.987c-.788.008-1.404-.987-1.404-.987s.336-.483 1.014-.123c0 0 .192.099.39.099z" fill="#232F3E"/></svg>