<svg width="15" height="41" viewBox="0 0 15 41" fill="none" xmlns="http://www.w3.org/2000/svg"><path d="M14.904 16.662c.207-1.15-.287-2.73-.351-3.499.047-1.102-.479-1.996-.415-2.364.176-.351 0-.958-.128-1.645-.047-1.773-.398-1.773-.622-1.837-.448-.449-2.46-1.215-2.604-1.215-.143 0-.894-.894-.941-1.07.191-.56-.326-.901-.494-.756.336.127.222 1.077.205 1.33-.145-.112-.543-.191-.67.143-.128.672-.48 1.47-.64 1.758-.159.287-.83 1.996-1.18 2.716-.081-.273-.192-1.247-.32-1.614-.336-.304-.717-1.102-.781-1.404.047-.352-.145-1.614-.064-1.837.079-.224.16-.639.16-.639v.004l.001-.002.015.06s.318.674.733.896c.191.177.245.212.348.217.255.012.627-.104.946-.392.317-.285.502-.282 1.146-1.048v-.01c.037-.014.028-.14.064-.202.025-.042.03-.197.028-.344.111.077.27-.273.358-.615.15-.511-.062-.726-.208-.752a.441.441 0 0 0-.082-.181c-.006-.003-.02-.039-.032-.06.072-.088.253-.311.41-.574C10.096.952 8.94.473 8.619.36 8.398.283 7.828.206 7.362.187 7.36.138 7.236.098 7.082.098c-.156 0-.284.042-.284.092 0 .009.02.014.027.022-.635.17-1.387.911-1.498 1.037-.11.128-.415.264-.391.71.087.871.232.888.47.935 0 .049.137.128.137.128.003.002.01-.005.013-.005.002.33.034.53.14.516 0 .16.304 1.038.36 1.198 0 0-.512.128-.624.4.095.032.27.734.223.751-.047.017-.496-.047-.496-.047s-.032.351.032.575c-.813.269-1.804.988-2.075 1.164-.27.175-.064 1.869-.207 2.331-.144.447-.368 1.869-.368 2.284 0 .415-.556 1.99-.615 2.468-.06.48-.719 2.864-.791 3.223-.072.36-.264 1.845-.348 2.145-.082.294.208.425.218.428-.048.35-.085.724-.047.857.08.27.27.99.368 1.213.096.224.752 1.086 1.022.926.08-.11.064-.255.064-.255s.336-.047 0-.368c.223-.096.208-.352-.239-.528-.334-.143-.415-.287-.35-.91.095-.097.286-.144.286-.144s.209.752.463.752c.255 0 .35-.256.223-.592-.123-.323-.015-.788-.15-1.065.007.003.019.013.02.013.061 0 .337-.808.612-1.384-.107.695.168 2.576.096 2.959-.072.383-.275 2.994-.275 3.27 0 .049.079.087.186.12-.12.745-.047 2.374.1 2.587.169.24.313 1.7.648 2.684.334.981 1.055 4.024 1.174 4.192.12.168.526 1.726.516 2.002-.336 1.221-.957 1.509-1.127 1.689-.168.18-.323.191-.335.588-.228.54 1.677.275 1.677.275 1.019-.168 1.367-1.401 1.46-1.522a.696.696 0 0 0 .26-.242c.016.077.026.158.052.23-.047.227-.215.874-.335 1.042-.12.168-.228.598-.228.946s.469.348 1.473.264c1.27-.047 1.138-.575 1.115-.659-.026-.084.095-.479.07-1.1a1.81 1.81 0 0 0-.074-.397h.002c.885-1.151.262-1.581.262-1.99.79-.862.815-2.324 1.151-3.593.336-1.27.096-3.881.024-4.241-.264-.12-.096-1.39-.05-1.82.016-.13.006-.35-.01-.585.418-.023.698-.055.818-.077.255-.047.095-3.418.11-3.752.017-.336 0-4.506-.16-4.776-.167-1.024-.135-2.141-.12-2.509.015-.368.175-1.66.304-1.358.049 1.341.351 2.092.479 2.444.13.35.064 2.54.112 3.147.048.607-.048 1.356.143 1.533.005-.004.01-.004.015-.005-.043.087-.08.168-.094.213-.047.16-.238.351-.238.862-.224.368-.175.702.127.655.304-.047.415-.415.415-.415s.463.464.128.926c-.128.064-.4.27-.16.368-.142.145-.383.111-.43.383-.143.27-.017.511.335.383.35-.127.766-.415.942-.591.175-.175.656-.958.656-1.341 0-.323.1-.773.2-.971.07.07.127.136.151.19.269.158.062-3.245.062-4.314zM6.311 28.445c.13-.144.49-.323.43-2.06-.007-.227.082-.558.171-.797.366.019.748.036 1.097.05-.018.241-.028.564.088.88.13.502.047 2 .406 2.468.012.143-.06.514.12.682-.084.169-.395.863-.18 2.624-.024.55-.203 2.251.023 2.431-.07.264-.226.432-.406.598 0 0-.192-.371-.168-.527.025-.155.408-.348-.012-.778-.42-.432-.467-.227-.526-1.019-.06-.79-.444-2.803-.516-2.959-.072-.156-.06-.479-.396-.827.193-.322-.263-.621-.131-.766z" fill="#232F3E"/></svg>