<svg width="31" height="30" viewBox="0 0 31 30" fill="none" xmlns="http://www.w3.org/2000/svg"><path d="M27.851 2.95C26.11 1.05 23.779 0 21.308 0c-2.141 0-4.172.78-5.803 2.23C13.875.78 11.844 0 9.703 0 7.232 0 4.9 1.05 3.16 2.95.468 5.9-.222 10.31 1.279 14h6.683l3.712-5.55a1 1 0 0 1 .99-.44 1 1 0 0 1 .8.73l2.431 8.88 2.781-4.17c.18-.28.5-.45.83-.45h5.002c.55 0 1 .45 1 1s-.45 1-1 1h-4.462l-3.712 5.55c-.19.29-.5.45-.83.45-.05 0-.11 0-.16-.01a1 1 0 0 1-.8-.73l-2.431-8.88-2.781 4.17c-.18.28-.5.45-.83.45H2.459l12.306 13.67c.19.21.45.33.74.33a1 1 0 0 0 .74-.33L27.85 16.99c3.533-3.87 3.533-10.17.001-14.04z" fill="#232F3E"/></svg>