<svg width="32" height="32" viewBox="0 0 32 32" fill="none" xmlns="http://www.w3.org/2000/svg"><path d="M28.117 8.47c-.19.74-.6 1.392-1.156 1.883h3.157a1.882 1.882 0 0 1 0 3.765H1.882a1.882 1.882 0 1 1 0-3.765H21.04a3.756 3.756 0 0 1-1.274-2.824V1.882c0-.52.421-.94.94-.94h6.59c.519 0 .94.42.94.94v.942h.942a2.824 2.824 0 0 1 0 5.647h-1.06zm.118-1.882h.942a.941.941 0 0 0 0-1.882h-.942v1.882zM8.471 25.412v-7.53a.941.941 0 1 1 1.882 0v9.883a4.235 4.235 0 1 1-8.47 0v-1.412c0-.52.42-.941.94-.941h5.648zm7.545-2.648a.944.944 0 0 1-.016-.176v-4.706a.941.941 0 0 1 1.882 0v4.706c0 .06-.005.12-.016.176 1.43.566 2.37 2.423 2.37 4.53 0 2.533-1.359 4.706-3.295 4.706s-3.294-2.173-3.294-4.706c0-2.107.94-3.964 2.37-4.53zm9.412 0a.944.944 0 0 1-.016-.176v-4.706a.941.941 0 1 1 1.882 0v4.706c0 .06-.006.12-.016.176 1.43.566 2.37 2.423 2.37 4.53 0 2.533-1.359 4.706-3.295 4.706s-3.294-2.173-3.294-4.706c0-2.107.94-3.964 2.37-4.53zM3.765 5.176H16c.52 0 .941.422.941.942a2.824 2.824 0 0 1-2.823 2.823h-8.47a2.824 2.824 0 0 1-2.824-2.823c0-.52.42-.942.94-.942zm0-5.176H16c.52 0 .941.421.941.941a2.824 2.824 0 0 1-2.823 2.824h-8.47A2.824 2.824 0 0 1 2.823.94c0-.52.42-.941.94-.941z" fill="#232F3E"/></svg>