<svg width="42" height="33" viewBox="0 0 42 33" fill="none" xmlns="http://www.w3.org/2000/svg"><path d="M16.19 13.937c-.964-.314-5.092-1.66-7.14-2.347-1.038 2.678-6.525 17.172-4.634 19.664 2.084 2.749 9.571-.473 11.751 0 2.18.475 1.911-1.04 1.911-1.04L16.19 13.937zM21.68 5.796c-.573-.78-3.825-.616-3.825-.616s-.826-1.77-1.358-2.098c-.621-.382-2.357-.314-2.357-.314s.162-2.565-.62-2.756c-1.494-.365-3.48 7.6-4.105 10.281 1.68.682 4.83 1.898 6.606 2.194l-.017-.152s.061-1.294.925-1.603c.581-.208 3.455-.798 4.258-1.604.592-.597.99-2.652.492-3.332zM24.33 18.593c1.283-.387 3.281-1.096 4.93-2.151-.064-.858.213-1.815.33-2.4.185-.924-.062-1.453-.555-2.776-.09-.238-.492-2.88-1.296-2.961-.792-.08-1.85 2.59-1.85 2.59s-2.284 0-2.557 1.019c-.328 1.223-1.59 1.888-1.64 2.067-.189.688.145 2.559 1.242 2.844.67.175 1.155 1.045 1.395 1.768zM29.82 17.75a1.554 1.554 0 0 1-.264-.323c-.887.481-3.553 1.893-5.032 2.298.604 2.848.259 10.038.277 10.346.025.457-.273.74-.052 1.105.337.557.999.61 1.78.468.782-.143 6.6 1.47 10.245-.055 4.472-2.694-2.988-12.283-6.954-13.839z" fill="#232F3E"/><path d="M4.226 30.354c-3.107-2.39-3.136-7.888-3.93-6.227-.742 1.553-.016 5.302 1.372 6.947 1.275 1.512 3.904 1.44 4.009.492M38.132 28.524c1.22.768 3.439-2.505 1.6-3.61-1.159-.694-1.287-.905-1.614-1.444-.786-1.293.244-4.907 2.227-5.373 1.474-.345 1.57 1.009.76 1.45-1.923 1.144-2.084 3.063-.775 3.998.74.529 1.261.906 1.584 2.085.455 1.663-.912 4.308-3.537 5.14 0 0-1.46.328-1.73-.27" fill="#232F3E"/></svg>